<svg xmlns="http://www.w3.org/2000/svg" width="23" height="24" viewBox="0 0 23 24">
    <g fill="none" fill-rule="evenodd">
        <g fill="#1D6BC3">
            <g>
                <g>
                    <path d="M11.155 23.015h.023-.023zm.705 0h-.008.023-.015zm-.706 0h.025-.024zm.711 0h-.014.025-.01zm-.707 0h.017-.017zm.71 0h-.013.017-.003zm-.01 0h-.006.023-.017zm-.702 0h.022-.022zm.707 0h-.013.027-.014zm-.71 0h.027-.027zm.716 0h-.018.025-.007zm-.715 0h.025H11.154zm.001 0h.023-.023zm.701 0h-.004.023-.019zm-.705 0h.031-.031zm.71 0h-.013.031-.018zm.007 0h-.02.031-.011zm-.717 0h.031-.031zm.013 0h.023-.041.018zm.7 0h-.02H11.883h-.02zm-.006 0h-.012.035-.023zm-.709 0h.035-.035zm0 0h.036H11.149zm.717 0h-.02.036-.016zm-.717 0h.035-.035zm.725 0h-.028.035-.007zm-.726 0l.038.001h-.01l-.028-.002zm.706 0l-.01.001.039-.002-.03.002zm-.707 0l.04.001h-.02l-.02-.002zm.716 0l-.02.001.04-.002-.02.001zm-.716 0l.04.001-.028-.001h-.012zm.725 0l-.028.001.04-.002h-.012zm-.007 0l-.036.002.032-.002.038-.002-.034.002zm-.695 0l.032.002-.037-.002-.033-.002.038.002zm.69 0l-.017.001.04-.002-.024.001zm-.714-.001l.041.002h-.016l-.025-.002zm0 0l.04.002-.024-.001-.016-.001zm1.42.001l-.026.001.04-.002-.014.001zm-2.099 0l.037.002-.034-.002-.034-.002.031.002zm2.094 0l-.034.002.036-.002.032-.002-.034.002zm-.008 0l-.012.001.039-.002-.027.002zm-2.103-.001l.039.002h-.012l-.027-.002zm0 0l.039.003-.021-.002-.017-.001zm2.112.001l-.02.002.038-.003-.018.001zm-2.11-.001l.035.002-.027-.001-.008-.001zm2.118 0l-.027.002.035-.002h-.008zm-2.116 0l.031.002h-.007l-.024-.002zm2.099.002h-.008l.03-.002-.022.002zm.007 0h-.015l.031-.002-.016.001zm-2.106-.002l.031.002h-.014l-.017-.002zm.002 0l.027.002-.019-.001h-.008zm2.11 0l-.019.002.027-.002h-.008zm-.007.001l-.007.001.018-.002-.011.001zm-2.098 0l.018.001h-.007l-.011-.002zm.002 0h.013H10.463zm2.1 0h-.01.014-.005zM9.702 23C4.208 22.131 0 17.341 0 11.57 0 5.185 5.153 0 11.5 0S23 5.185 23 11.57c0 5.771-4.208 10.561-9.703 11.43v-8.085h2.68l.51-3.345h-3.19V9.4c0-.915.445-1.807 1.874-1.807h1.45V4.746s-1.316-.226-2.574-.226c-2.627 0-4.344 1.601-4.344 4.501v2.55h-2.92v3.344h2.92V23z" transform="translate(-579 -664) translate(65 662) translate(514 2)"/>
                </g>
            </g>
        </g>
    </g>
</svg>
