<svg xmlns="http://www.w3.org/2000/svg" width="23" height="23" viewBox="0 0 23 23">
    <g fill="none" fill-rule="evenodd">
        <g fill="#1D6BC3">
            <g>
                <g>
                    <path d="M11.5 0C17.847 0 23 5.153 23 11.5S17.847 23 11.5 23 0 17.847 0 11.5 5.153 0 11.5 0zm0 4.381c-1.933 0-2.176.008-2.935.043-.758.034-1.275.155-1.728.33-.468.183-.865.426-1.261.822-.396.396-.64.793-.821 1.26-.176.454-.297.971-.331 1.729-.035.76-.043 1.002-.043 2.935s.008 2.176.043 2.935c.034.758.155 1.275.33 1.728.183.468.426.865.822 1.261.396.396.793.64 1.26.821.454.176.971.297 1.729.331.76.035 1.002.043 2.935.043s2.176-.008 2.935-.043c.758-.034 1.275-.155 1.728-.33.468-.183.865-.426 1.261-.822.396-.396.64-.793.821-1.26.176-.454.297-.971.331-1.729.035-.76.043-1.002.043-2.935s-.008-2.176-.043-2.935c-.034-.758-.155-1.275-.33-1.728-.183-.468-.426-.865-.822-1.261-.396-.396-.793-.64-1.26-.821-.454-.176-.971-.297-1.729-.331-.76-.035-1.002-.043-2.935-.043zm0 1.095c1.962 0 2.194.008 2.97.043.716.033 1.105.152 1.363.253.343.133.588.293.845.55.257.257.417.502.55.845.1.258.22.647.253 1.364.035.775.043 1.007.043 2.969s-.008 2.194-.043 2.97c-.033.716-.152 1.105-.253 1.363-.133.343-.293.588-.55.845-.257.257-.502.417-.845.55-.258.1-.647.22-1.364.253-.775.035-1.007.043-2.969.043s-2.194-.008-2.97-.043c-.716-.033-1.105-.152-1.363-.253-.343-.133-.588-.293-.845-.55-.257-.257-.417-.502-.55-.845-.1-.258-.22-.647-.253-1.364-.035-.775-.043-1.007-.043-2.969s.008-2.194.043-2.97c.033-.716.152-1.105.253-1.363.133-.343.293-.588.55-.845.257-.257.502-.417.845-.55.258-.1.647-.22 1.364-.253.775-.035 1.007-.043 2.969-.043zm0 2.19c-2.117 0-3.833 1.717-3.833 3.834s1.716 3.833 3.833 3.833 3.833-1.716 3.833-3.833-1.716-3.833-3.833-3.833zm-2.643 3.841c0-1.463 1.187-2.65 2.65-2.65 1.464 0 2.65 1.187 2.65 2.65 0 1.464-1.186 2.65-2.65 2.65-1.463 0-2.65-1.186-2.65-2.65zm7.572-3.84c0 .605-.49 1.095-1.096 1.095-.605 0-1.095-.49-1.095-1.095s.49-1.096 1.095-1.096 1.096.49 1.096 1.096z" transform="translate(-612 -664) translate(65 662) translate(547 2)"/>
                </g>
            </g>
        </g>
    </g>
</svg>
