<svg xmlns="http://www.w3.org/2000/svg" width="36" height="35" viewBox="0 0 36 35">
    <g fill="none" fill-rule="evenodd">
        <g fill-rule="nonzero">
            <g>
                <g>
                    <g transform="translate(-130 -625) translate(85 625) translate(.375) translate(45)">
                        <circle cx="17.5" cy="17.5" r="17.5" fill="#007AB9"/>
                        <path fill="#F1F2F2" d="M28 18.801v7.449h-4.127V19.3c0-1.745-.596-2.936-2.09-2.936-1.14 0-1.817.802-2.117 1.579-.108.278-.136.663-.136 1.052v7.255h-4.127s.055-11.77 0-12.989h4.127v1.84c-.008.015-.02.03-.027.043h.027v-.042c.548-.883 1.527-2.146 3.72-2.146 2.714 0 4.75 1.856 4.75 5.845zM11.085 7C9.674 7 8.75 7.97 8.75 9.244c0 1.247.897 2.245 2.281 2.245h.027c1.44 0 2.334-.998 2.334-2.245C13.365 7.97 12.497 7 11.085 7zm-2.09 19.25h4.126V13.261H8.995V26.25z"/>
                    </g>
                </g>
            </g>
        </g>
    </g>
</svg>
