<svg xmlns="http://www.w3.org/2000/svg" width="36" height="35" viewBox="0 0 36 35">
    <g fill="none" fill-rule="evenodd">
        <g fill-rule="nonzero">
            <g>
                <g>
                    <g transform="translate(-175 -625) translate(85 625) translate(.375) translate(90)">
                        <circle cx="17.5" cy="17.5" r="17.5" fill="#55ACEE"/>
                        <path fill="#F1F2F2" d="M28 12.365c-.772.316-1.603.53-2.475.625.89-.492 1.573-1.27 1.895-2.2-.832.456-1.755.787-2.736.965-.786-.772-1.906-1.255-3.145-1.255-2.38 0-4.309 1.78-4.309 3.976 0 .312.038.615.112.906-3.58-.165-6.755-1.748-8.88-4.155-.371.588-.584 1.271-.584 2 0 1.379.761 2.596 1.917 3.31-.706-.021-1.371-.2-1.952-.499v.05c0 1.927 1.486 3.534 3.456 3.9-.36.09-.742.139-1.134.139-.279 0-.548-.025-.811-.071.548 1.58 2.139 2.729 4.025 2.761-1.475 1.067-3.333 1.702-5.352 1.702-.347 0-.69-.019-1.027-.056 1.906 1.129 4.17 1.787 6.604 1.787 7.925 0 12.258-6.059 12.258-11.313 0-.173-.004-.344-.012-.515.842-.56 1.573-1.26 2.15-2.057z"/>
                    </g>
                </g>
            </g>
        </g>
    </g>
</svg>
