<svg xmlns="http://www.w3.org/2000/svg" width="439" height="700" viewBox="0 0 439 700">
    <path fill="#DDE9F6" fill-opacity=".25" fill-rule="evenodd" d="M167.44 230.283c6.47 28.365-44.349 93.301-89.991 145.568-33.548 38.469-65.155 68.526-64.707 80.17 1.046 27.39 119.06-33.905 142.205-3.642 17.47 28.16-22.1 83.042-35.041 121.306-11.2 30.622-74.91 164.494-127.123 137.822-23.444-25.646 68.987-85.555 87.552-116.946 10.851-12.977 66.897-101.764 59.53-128.795-7.366-27.082-129.213 28.878-129.213 28.878 1.294 13.49-1.643 31.34-1.842 54.575-.298 27.544 9.806 104.636-17.77 108.893-6.42.975-13.438-3.744-17.072-8.36-9.059-11.644-1.642-31.443-.448-34.212 6.82-15.901 11.1-113.51 11.448-189.782.448-76.271 11.648-197.783 8.86-201.373-2.787-3.642-55.498 43.393-79.837 16.926l-2.638-9.386-.018-.072c-.37-1.542-5.77-27.399 45.262-38.295 52.611-11.233 194.816-24.466 210.843 36.725zm146.02-23.422l.153.033c.157.035.24.056.24.056s10.695 6.592 6.07 19.467c-4.627 12.874-20.992 32.29-21.29 47.739-.498 24.101 18.006 51.087 34.72 93.315 15.022 37.955 28.701 75.755 36.959 81.626 13.928 5.922 29.845 0 29.845 16.17s-17.758 16.583-21.34 25.338c-4.227 43.413 64.268 117.262 59.99 137.861-4.277 20.548-10.644 46.195-43.276 43.31-32.68-2.935-14.574-60.201-19.897-84.869-5.322-24.616-26.264-85.951-34.074-86.363-4.576-.206-80.931 10.3-110.727 40.426-21.29 26.47 11.69 127.15-23.827 131.013l-3.582-.206s-19.996-.927-21.19-41.714c-.647-22.917-.846-96.045 11.988-174.323 10.048-60.923 29.1-124.678 54.27-172.314 26.363-40.839 38.4-68.03 45.116-73.952 6.081-5.278 17.588-3.107 19.853-2.613zM244.775 99.114c54.34 3.026 44.537 63.404 44.537 63.404s-6.499 66.834-48.179 66.48c-41.736-.403-50.531-56.997-48.963-72.584 0 0-1.68-60.377 52.605-57.3zM173.104 2.68c32.624 19.893 13.194 72.682 0 91.28-15.616 18.909-54.991 65.74-86.43 40.977-31.49-24.71 5.618-88.844 5.618-88.844S128.42-13.12 173.104 2.68z"/>
</svg>
