<svg xmlns="http://www.w3.org/2000/svg" width="25" height="25" viewBox="0 0 25 25">
    <g fill="none" fill-rule="evenodd">
        <g fill-rule="nonzero">
            <g>
                <g>
                    <g>
                        <g>
                            <g transform="translate(-250 -769) translate(120 120) translate(40 385) translate(20 210) translate(0 54) translate(70)">
                                <circle cx="12.5" cy="12.5" r="12.5" fill="#55ACEE"/>
                                <path fill="#F1F2F2" d="M20 8.832c-.552.226-1.145.378-1.768.447.636-.352 1.124-.908 1.354-1.571-.595.325-1.254.561-1.954.689-.562-.552-1.362-.897-2.247-.897-1.7 0-3.078 1.272-3.078 2.84 0 .223.028.44.08.647C9.83 10.87 7.562 9.738 6.044 8.02c-.265.419-.417.907-.417 1.428 0 .985.544 1.854 1.37 2.363-.505-.014-.98-.142-1.395-.355v.036c0 1.376 1.061 2.524 2.469 2.784-.258.066-.53.1-.81.1-.2 0-.392-.017-.58-.05.392 1.128 1.528 1.949 2.875 1.972-1.053.762-2.38 1.216-3.822 1.216-.248 0-.494-.014-.734-.04 1.361.806 2.98 1.276 4.717 1.276 5.66 0 8.756-4.328 8.756-8.081 0-.123-.003-.246-.009-.367.602-.4 1.124-.9 1.536-1.47z"/>
                            </g>
                        </g>
                    </g>
                </g>
            </g>
        </g>
    </g>
</svg>
