<svg xmlns="http://www.w3.org/2000/svg" width="25" height="25" viewBox="0 0 25 25">
    <g fill="none" fill-rule="evenodd">
        <g fill-rule="nonzero">
            <g>
                <g>
                    <g>
                        <g>
                            <g transform="translate(-215 -769) translate(120 120) translate(40 385) translate(20 210) translate(0 54) translate(35)">
                                <circle cx="12.5" cy="12.5" r="12.5" fill="#007AB9"/>
                                <path fill="#F1F2F2" d="M20 13.43v5.32h-2.948v-4.964c0-1.246-.425-2.098-1.493-2.098-.814 0-1.298.573-1.512 1.128-.077.199-.097.474-.097.752v5.182h-2.948s.04-8.408 0-9.278h2.948v1.315l-.02.03h.02v-.03c.392-.63 1.09-1.533 2.657-1.533C18.546 9.254 20 10.58 20 13.43zM7.918 5C6.91 5 6.25 5.693 6.25 6.603c0 .89.64 1.603 1.63 1.603h.019c1.028 0 1.667-.713 1.667-1.603C9.546 5.693 8.926 5 7.918 5zM6.425 18.75h2.947V9.472H6.425v9.278z"/>
                            </g>
                        </g>
                    </g>
                </g>
            </g>
        </g>
    </g>
</svg>
