<svg xmlns="http://www.w3.org/2000/svg" width="541" height="700" viewBox="0 0 541 700">
    <path fill="#DDE9F6" fill-opacity=".4" fill-rule="evenodd" d="M230.148 157.643c9.845 42.68-67.472 140.39-136.913 219.036-51.04 57.885-99.126 103.113-98.444 120.633 1.59 41.214 181.137-51.016 216.35-5.48 26.58 42.372-33.623 124.954-53.311 182.53C140.79 720.44 43.86 921.878-35.575 881.745c-35.667-38.59 104.956-128.736 133.202-175.97 16.508-19.527 101.776-153.125 90.569-193.8C176.988 471.226-8.39 555.429-8.39 555.429c1.97 20.298-2.499 47.157-2.802 82.12-.454 41.445 14.919 157.447-27.034 163.852-9.769 1.467-20.446-5.634-25.974-12.58-13.782-17.52-2.499-47.311-.681-51.479 10.374-23.926 16.886-170.799 17.417-285.565.681-114.767 17.72-297.606 13.479-303.009-4.24-5.48-84.435 65.294-121.465 25.47l-4.014-14.124s-11.207-40.828 68.836-57.73c80.042-16.903 296.392-36.816 320.776 55.26zm218.454-36.212s16.271 9.93 9.233 29.325-31.937 48.643-32.39 71.917c-.757 36.307 27.395 76.958 52.823 140.574 22.855 57.176 43.667 114.12 56.23 122.963 21.19 8.922 45.407 0 45.407 24.36s-27.018 24.98-32.466 38.17c-6.433 65.399 97.777 176.648 91.268 207.68-6.508 30.954-16.195 69.588-65.84 65.244-49.721-4.422-22.174-90.69-30.272-127.851-8.098-37.083-39.958-129.48-51.84-130.101-6.962-.31-123.13 15.516-168.46 60.9-32.391 39.876 17.784 191.544-36.251 197.362l-5.449-.31s-30.423-1.397-32.24-62.84c-.983-34.522-1.286-144.685 18.24-262.606 15.287-91.777 44.272-187.82 82.565-259.581 40.11-61.52 58.424-102.483 68.64-111.404 10.293-8.844 30.802-3.802 30.802-3.802zM343.16-42.829c81.512 4.563 66.806 95.594 66.806 95.594s-9.748 100.765-72.268 100.233c-62.604-.608-75.797-85.936-73.444-109.435 0 0-2.521-91.03 78.906-86.392zm-106.692-143.17c50.19 29.7 20.298 108.512 0 136.277-24.025 28.23-84.602 98.147-132.97 61.178-48.445-36.892 8.643-132.642 8.643-132.642s55.583-88.402 124.327-64.812z"/>
</svg>
